<svg xmlns="http://www.w3.org/2000/svg" viewBox="0 0 64 64">
  <defs>
    <linearGradient id="g" x1="0" y1="0" x2="1" y2="1">
      <stop offset="0%" stop-color="#43a047" />
      <stop offset="100%" stop-color="#1b5e20" />
    </linearGradient>
  </defs>
  <rect width="64" height="64" rx="14" fill="url(#g)" />
  <path
    fill="#fff"
    d="M40.9 23.8a9.2 9.2 0 0 0-17.8 3.1v1.7a9.2 9.2 0 0 0 7.8 9 6 6 0 0 1-2.4 1.9l-1.3.5a2 2 0 0 0 .4 3.9h9.2a2 2 0 0 0 .4-3.9l-1.3-.5a6 6 0 0 1-2.4-1.9 9.2 9.2 0 0 0 7.8-9v-1.7a9 9 0 0 0-.4-2.9Z"
  />
</svg>
